<svg width="51" height="51" viewBox="0 0 51 51" fill="none" xmlns="http://www.w3.org/2000/svg">
<path d="M27.4231 8.80811H12.2931C9.27564 8.77623 6.30064 9.99811 6.15189 10.625C5.89689 11.7831 5.36564 37.1875 5.28064 41.5225C5.27441 41.6791 5.32807 41.8322 5.43071 41.9506C5.53335 42.069 5.67725 42.1439 5.83314 42.16C13.4088 42.3087 24.5013 45.6875 33.3306 45.6875C35.2644 45.6875 41.9263 45.9425 41.9263 42.8294C41.9263 41.0975 40.3963 39.1956 40.3644 37.3469C40.3644 36.4225 39.695 26.4987 39.865 25.2025" stroke="black" stroke-width="1.2" stroke-linecap="round" stroke-linejoin="round"/>
<path d="M11.39 17.8606C12.8394 17.8606 14.0144 16.6857 14.0144 15.2363C14.0144 13.7869 12.8394 12.6119 11.39 12.6119C9.9406 12.6119 8.76562 13.7869 8.76562 15.2363C8.76562 16.6857 9.9406 17.8606 11.39 17.8606Z" stroke="black" stroke-width="1.2" stroke-linecap="round" stroke-linejoin="round"/>
<path d="M28.1563 23.5344C27.8907 23.7362 27.6038 23.9487 27.2957 24.1506" stroke="black" stroke-width="1.2" stroke-linecap="round" stroke-linejoin="round"/>
<path d="M25.5 25.2875C20.485 28.1881 13.2494 31.2588 14.875 34.1806C16.3838 36.9325 21.25 36.8688 24.0763 36.5819" stroke="black" stroke-width="1.2" stroke-linecap="round" stroke-linejoin="round"/>
<path d="M25.075 36.4437L26.1375 36.2737M13.8125 19.6775C13.9467 20.0028 14.1217 20.3099 14.3331 20.5912" stroke="black" stroke-width="1.2" stroke-linecap="round" stroke-linejoin="round"/>
<path d="M15.9375 22.44C16.5284 23.0565 17.2975 23.4726 18.1369 23.63C20.1973 23.5979 22.2031 22.9625 23.9062 21.8025" stroke="black" stroke-width="1.2" stroke-linecap="round" stroke-linejoin="round"/>
<path d="M25.0113 21.1756L25.925 20.6231M35.2325 5.31249C33.157 5.30618 31.1264 5.91586 29.3976 7.06433C27.6689 8.2128 26.3198 9.84841 25.5212 11.7641C24.7226 13.6797 24.5103 15.7893 24.9114 17.8256C25.3124 19.862 26.3087 21.7336 27.774 23.2034C29.2393 24.6732 31.1079 25.6751 33.143 26.0823C35.1781 26.4896 37.2883 26.2838 39.2064 25.491C41.1245 24.6982 42.7642 23.3541 43.9179 21.6289C45.0716 19.9036 45.6875 17.8748 45.6875 15.7994C45.6875 13.0236 44.587 10.361 42.6272 8.39527C40.6675 6.42951 38.0083 5.32092 35.2325 5.31249Z" stroke="black" stroke-width="1.2" stroke-linecap="round" stroke-linejoin="round"/>
<path d="M34.7438 11.2625L29.3569 12.5269M29.3569 12.5269L41.1188 19.0719M29.3569 12.5269L31.3119 17.5738M25.1919 32.9375C27.9331 33.745 31.4925 37.6125 33.8619 40.8" stroke="black" stroke-width="1.2" stroke-linecap="round" stroke-linejoin="round"/>
<path d="M33.0969 31.2588C30.589 34.1376 28.3084 37.2068 26.2756 40.4388" stroke="black" stroke-width="1.2" stroke-linecap="round" stroke-linejoin="round"/>
</svg>
