<svg width="226" height="60" viewBox="0 0 226 60" fill="none" xmlns="http://www.w3.org/2000/svg">
<path d="M202 4.5C197.779 4.50265 193.731 6.18078 190.746 9.16579C187.761 12.1508 186.083 16.1986 186.08 20.42C186.08 26.64 190.01 32.32 193.88 36.42C196.226 38.9308 198.815 41.202 201.61 43.2L202 43.47L202.39 43.2C205.185 41.202 207.775 38.9308 210.12 36.42C213.99 32.28 217.92 26.61 217.92 20.42C217.917 16.1986 216.239 12.1508 213.254 9.16579C210.269 6.18078 206.222 4.50265 202 4.5Z" stroke="#FBA15B" stroke-width="1.5" stroke-linecap="round" stroke-linejoin="round"/>
<path d="M209.41 23.98C211.608 23.98 213.39 22.1981 213.39 20C213.39 17.8019 211.608 16.02 209.41 16.02C207.212 16.02 205.43 17.8019 205.43 20C205.43 22.1981 207.212 23.98 209.41 23.98Z" stroke="#FBA15B" stroke-width="1.5" stroke-linecap="round" stroke-linejoin="round"/>
<path d="M194.64 23.98C196.838 23.98 198.62 22.1981 198.62 20C198.62 17.8019 196.838 16.02 194.64 16.02C192.442 16.02 190.66 17.8019 190.66 20C190.66 22.1981 192.442 23.98 194.64 23.98Z" stroke="#FBA15B" stroke-width="1.5" stroke-linecap="round" stroke-linejoin="round"/>
<path d="M207.12 13.06L201.72 20H194.64L200.06 13.06H207.12Z" stroke="#FBA15B" stroke-width="1.5" stroke-linecap="round" stroke-linejoin="round"/>
<path d="M209.41 20L206.27 10.48H203.96M199.54 10.86L201.72 20M198.13 10.86H201.07M187.86 27.77H216.14" stroke="#FBA15B" stroke-width="1.5" stroke-linecap="round" stroke-linejoin="round"/>
<path d="M20 46L0 36.453V59.547L20 50V46ZM213.547 48L202 36.453L190.453 48L202 59.547L213.547 48ZM25.25 50H42.0833V46H25.25V50ZM58.9167 50H75.75V46H58.9167V50ZM92.5833 50H109.417V46H92.5833V50ZM126.25 50H143.083V46H126.25V50ZM159.917 50H176.75V46H159.917V50ZM193.583 50H202V46H193.583V50Z" fill="#FBA15B"/>
</svg>
